<svg width="150" height="23" viewBox="0 0 150 23" fill="none" xmlns="http://www.w3.org/2000/svg">
<g id="Click-Story logo" clip-path="url(#clip0_539_594)">
<g id="Group">
<g id="Group_2" opacity="0.4">
<path id="Vector" d="M11.1075 17.6592C10.6184 17.6592 10.3738 17.2957 10.5267 16.8413L12.7583 10.6919C12.9112 10.2375 13.4309 9.87402 13.92 9.87402H26.5761C27.0653 9.87402 27.3098 10.2375 27.157 10.6919L24.9253 16.8413C24.7725 17.2957 24.2528 17.6592 23.7637 17.6592H11.1075Z" fill="url(#paint0_linear_539_594)"/>
</g>
<path id="Vector_2" opacity="0.5" d="M18.5676 12.7822C18.5676 12.7822 11.2307 14.933 10.6193 16.7203C10.0079 18.5075 12.0255 12.7822 12.0255 12.7822H18.5676Z" fill="url(#paint1_linear_539_594)"/>
<g id="Group_3" opacity="0.9">
<path id="Vector_3" d="M5.94151 12.7823C5.45238 12.7823 5.20782 12.4188 5.36067 11.9644L7.62288 5.81497C7.77573 5.36058 8.29543 4.99707 8.78456 4.99707H21.4407C21.9298 4.99707 22.1744 5.36058 22.0215 5.81497L19.7593 11.9644C19.6065 12.4188 19.0868 12.7823 18.5976 12.7823H5.94151Z" fill="url(#paint2_linear_539_594)"/>
</g>
<g id="Group_4" opacity="0.76">
<path id="Vector_4" d="M1.11143 7.81448C0.622307 7.81448 0.377744 7.45096 0.530596 6.99658L2.7928 0.877471C2.94566 0.423082 3.46535 0.0595703 3.95448 0.0595703H16.6106C17.0997 0.0595703 17.3443 0.423082 17.1914 0.877471L14.9292 7.02687C14.7764 7.48126 14.2567 7.84477 13.7676 7.84477H1.11143V7.81448Z" fill="url(#paint3_linear_539_594)"/>
</g>
<path id="Vector_5" opacity="0.76" d="M13.5845 7.81445C13.5845 7.81445 6.06422 10.0258 5.45282 11.8131C4.84141 13.6003 6.88962 7.81445 6.88962 7.81445H13.5845Z" fill="url(#paint4_linear_539_594)"/>
<path id="Vector_6" d="M40.3331 17.4175C38.7434 17.4175 37.3372 16.8419 36.2061 15.7211C35.075 14.6003 34.4941 13.2371 34.4941 11.6316C34.4941 10.0564 35.075 8.66291 36.2061 7.54209C37.3372 6.42126 38.7129 5.8457 40.3331 5.8457C41.9227 5.8457 43.329 6.42126 44.4601 7.54209C44.6741 7.75414 44.7658 7.96619 44.7658 8.26911C44.7658 8.57204 44.6741 8.78409 44.4601 8.99613C44.2461 9.20818 44.0321 9.29906 43.7264 9.29906C43.4513 9.29906 43.2067 9.20818 42.9927 8.99613C42.259 8.26911 41.3725 7.9056 40.3331 7.9056C39.2937 7.9056 38.4071 8.26911 37.6735 8.99613C36.9398 9.72316 36.5729 10.6016 36.5729 11.6619C36.5729 12.6918 36.9398 13.5703 37.6735 14.2973C38.4071 15.0244 39.2937 15.3879 40.3331 15.3879C41.3725 15.3879 42.259 15.0244 42.9927 14.2973C43.2067 14.0853 43.4207 13.9944 43.7264 13.9944C44.0015 13.9944 44.2461 14.0853 44.4601 14.2973C44.6741 14.5094 44.7658 14.7214 44.7658 15.0244C44.7658 15.297 44.6741 15.5393 44.4601 15.7514C43.329 16.8419 41.9533 17.4175 40.3331 17.4175Z" fill="#333333"/>
<path id="Vector_7" d="M48.0374 17.4175C47.7623 17.4175 47.5177 17.3266 47.3038 17.1145C47.0898 16.9025 46.998 16.6904 46.998 16.3875V6.90592C46.998 6.63329 47.0898 6.39095 47.3038 6.1789C47.5177 5.96685 47.7317 5.87598 48.0374 5.87598C48.3126 5.87598 48.5571 5.96685 48.7406 6.1789C48.9545 6.39095 49.0463 6.603 49.0463 6.90592V15.4181H54.4266C54.7018 15.4181 54.9463 15.509 55.1603 15.7211C55.3438 15.9331 55.466 16.1452 55.466 16.4178C55.466 16.6904 55.3743 16.9328 55.1603 17.1448C54.9463 17.3569 54.7323 17.4478 54.4266 17.4478H48.0374V17.4175Z" fill="#333333"/>
<path id="Vector_8" d="M58.5833 17.4175C58.3082 17.4175 58.0636 17.3266 57.8496 17.1145C57.6357 16.9025 57.5439 16.6904 57.5439 16.3875V6.90592C57.5439 6.63329 57.6357 6.39095 57.8496 6.1789C58.0636 5.96685 58.2776 5.87598 58.5833 5.87598C58.8585 5.87598 59.103 5.96685 59.2865 6.1789C59.5004 6.39095 59.5922 6.603 59.5922 6.90592V16.4178C59.5922 16.6904 59.5004 16.9328 59.2865 17.1448C59.103 17.3266 58.8585 17.4175 58.5833 17.4175Z" fill="#333333"/>
<path id="Vector_9" d="M67.8468 17.4175C66.2571 17.4175 64.8509 16.8419 63.7198 15.7211C62.5887 14.6003 62.0078 13.2371 62.0078 11.6316C62.0078 10.0564 62.5887 8.66291 63.7198 7.54209C64.8509 6.42126 66.2265 5.8457 67.8468 5.8457C69.467 5.8457 70.8427 6.42126 71.9738 7.54209C72.1877 7.75414 72.2795 7.96619 72.2795 8.26911C72.2795 8.57204 72.1877 8.78409 71.9738 8.99613C71.7598 9.20818 71.5458 9.29906 71.2401 9.29906C70.9649 9.29906 70.7204 9.20818 70.5064 8.99613C69.7727 8.26911 68.8861 7.9056 67.8468 7.9056C66.8074 7.9056 65.9208 8.26911 65.1871 8.99613C64.4534 9.72316 64.0866 10.6016 64.0866 11.6619C64.0866 12.6918 64.4534 13.5703 65.1871 14.2973C65.9208 15.0244 66.8074 15.3879 67.8468 15.3879C68.8861 15.3879 69.7727 15.0244 70.5064 14.2973C70.7204 14.0853 70.9344 13.9944 71.2401 13.9944C71.5152 13.9944 71.7598 14.0853 71.9738 14.2973C72.1877 14.5094 72.2795 14.7214 72.2795 15.0244C72.2795 15.297 72.1877 15.5393 71.9738 15.7514C70.8427 16.8419 69.467 17.4175 67.8468 17.4175Z" fill="#333333"/>
<path id="Vector_10" d="M83.5296 17.4175C83.1628 17.4175 82.8876 17.266 82.6736 16.9631L79.7694 12.6615H76.529V16.4178C76.529 16.6904 76.4373 16.9328 76.2233 17.1448C76.0093 17.3569 75.7953 17.4478 75.4896 17.4478C75.2145 17.4478 74.9699 17.3569 74.7559 17.1448C74.5419 16.9328 74.4502 16.7207 74.4502 16.4178V6.90592C74.4502 6.63329 74.5419 6.39095 74.7559 6.1789C74.9699 5.96685 75.1839 5.87598 75.4896 5.87598C75.7647 5.87598 76.0093 5.96685 76.1927 6.1789C76.4067 6.39095 76.4984 6.603 76.4984 6.90592V10.6622H79.7389L82.6431 6.36066C82.7959 6.11832 83.0099 5.96685 83.285 5.93656C83.3462 5.93656 83.4073 5.90627 83.499 5.90627C83.713 5.90627 83.8964 5.96685 84.0799 6.08802C84.3244 6.23949 84.4467 6.45154 84.5078 6.72417C84.569 6.9968 84.5078 7.23914 84.355 7.48148L81.5425 11.6922L84.355 15.8725C84.5078 16.1149 84.569 16.3572 84.5078 16.6298C84.4467 16.9025 84.2939 17.1145 84.0799 17.266C83.927 17.3569 83.7436 17.4175 83.5296 17.4175Z" fill="#333333"/>
<path id="Vector_11" d="M91.8753 17.4175C91.6002 17.4175 91.3556 17.3266 91.1416 17.1145C90.9276 16.9025 90.8359 16.6905 90.8359 16.3875C90.8359 16.1149 90.9276 15.8726 91.1416 15.6605C91.3556 15.4485 91.5696 15.3576 91.8753 15.3576H97.4697C97.8366 15.3576 98.1728 15.2364 98.448 14.9638C98.7231 14.6911 98.8454 14.3579 98.8454 13.9944C98.8454 13.6309 98.6925 13.2977 98.448 13.025C98.1728 12.7524 97.8671 12.6312 97.4697 12.6312H94.2598C93.3121 12.6312 92.5173 12.298 91.8448 11.6316C91.1722 10.9652 90.8359 10.1775 90.8359 9.23847C90.8359 8.2994 91.1722 7.5118 91.8448 6.84536C92.5173 6.17892 93.3121 5.8457 94.2598 5.8457H99.8542C100.129 5.8457 100.374 5.93658 100.588 6.14863C100.802 6.36068 100.894 6.57273 100.894 6.87565C100.894 7.17858 100.802 7.39063 100.588 7.60267C100.374 7.81472 100.16 7.9056 99.8542 7.9056H94.2598C93.893 7.9056 93.5567 8.05706 93.2816 8.2994C93.0064 8.57204 92.8842 8.87496 92.8842 9.26877C92.8842 9.63228 93.0064 9.9655 93.2816 10.2381C93.5567 10.5108 93.8624 10.6319 94.2598 10.6319H97.4697C98.4174 10.6319 99.2122 10.9652 99.8848 11.6316C100.557 12.298 100.894 13.0856 100.894 14.0247C100.894 14.9638 100.557 15.7514 99.8848 16.4178C99.2122 17.0843 98.4174 17.4175 97.4697 17.4175H91.8753Z" fill="#333333"/>
<path id="Vector_12" d="M107.374 17.4175C107.099 17.4175 106.854 17.3266 106.641 17.1145C106.457 16.9328 106.335 16.6905 106.335 16.3875V7.9056H103.369C103.094 7.9056 102.85 7.81472 102.636 7.60267C102.422 7.39063 102.33 7.17858 102.33 6.87565C102.33 6.57273 102.422 6.36068 102.636 6.14863C102.85 5.93658 103.064 5.8457 103.369 5.8457H111.348C111.623 5.8457 111.868 5.93658 112.082 6.14863C112.296 6.36068 112.388 6.57273 112.388 6.87565C112.388 7.17858 112.296 7.39063 112.082 7.60267C111.868 7.81472 111.654 7.9056 111.348 7.9056H108.383V16.4178C108.383 16.6905 108.291 16.9328 108.077 17.1448C107.894 17.3266 107.649 17.4175 107.374 17.4175Z" fill="#333333"/>
<path id="Vector_13" d="M119.693 17.4175C118.104 17.4175 116.728 16.8419 115.566 15.7211C114.435 14.6003 113.854 13.2371 113.854 11.6316C113.854 10.0564 114.435 8.66291 115.566 7.54209C116.698 6.42126 118.073 5.8457 119.693 5.8457C121.283 5.8457 122.689 6.42126 123.82 7.54209C124.952 8.66291 125.532 10.0261 125.532 11.6316C125.532 13.2068 124.952 14.57 123.82 15.7211C122.659 16.8419 121.283 17.4175 119.693 17.4175ZM119.693 7.9056C118.654 7.9056 117.768 8.26911 117.034 9.02643C116.3 9.75345 115.933 10.6319 115.933 11.6619C115.933 12.6918 116.3 13.5703 117.034 14.2973C117.768 15.0244 118.654 15.3879 119.693 15.3879C120.733 15.3879 121.619 15.0244 122.384 14.2973C123.117 13.5703 123.484 12.6918 123.484 11.6619C123.484 10.6319 123.117 9.75345 122.384 9.02643C121.619 8.26911 120.702 7.9056 119.693 7.9056Z" fill="#333333"/>
<path id="Vector_14" d="M136.966 17.4175C136.691 17.4175 136.446 17.3266 136.232 17.1145L133.328 14.2367H129.966V16.3875C129.966 16.6601 129.874 16.9025 129.66 17.1145C129.446 17.3266 129.232 17.4175 128.926 17.4175C128.651 17.4175 128.406 17.3266 128.192 17.1145C127.978 16.9025 127.887 16.6904 127.887 16.3875V6.90592C127.887 6.63329 127.978 6.39095 128.192 6.1789C128.406 5.96685 128.62 5.87598 128.926 5.87598H133.726C134.887 5.87598 135.866 6.26978 136.722 7.11797C137.547 7.93587 137.975 8.90524 137.975 10.0866C137.975 10.8137 137.792 11.5104 137.425 12.1163C137.088 12.7221 136.599 13.2371 135.988 13.6006L135.713 13.7823L137.669 15.6908C137.883 15.9028 137.975 16.1149 137.975 16.4178C137.975 16.6904 137.883 16.9328 137.669 17.1448C137.486 17.3266 137.241 17.4175 136.966 17.4175ZM129.996 12.2071H133.756C134.368 12.2071 134.887 11.9951 135.285 11.571C135.713 11.1469 135.927 10.6319 135.927 10.0564C135.927 9.4505 135.713 8.93553 135.285 8.54173C134.857 8.11763 134.337 7.90558 133.756 7.90558H129.996V12.2071Z" fill="#333333"/>
<path id="Vector_15" d="M144.456 17.4175C144.181 17.4175 143.936 17.3266 143.722 17.1145C143.508 16.9025 143.416 16.6904 143.416 16.3875V13.5097L139.595 7.4209C139.442 7.17856 139.412 6.93622 139.473 6.66358C139.534 6.39095 139.687 6.1789 139.931 6.02744C140.115 5.93656 140.268 5.87598 140.451 5.87598C140.543 5.87598 140.604 5.87598 140.696 5.90627C140.971 5.96685 141.185 6.11832 141.338 6.36066L144.486 11.3286L147.635 6.36066C147.788 6.11832 148.002 5.96685 148.277 5.90627C148.369 5.87598 148.43 5.87598 148.522 5.87598C148.705 5.87598 148.889 5.93656 149.041 6.02744C149.286 6.1789 149.439 6.39095 149.5 6.66358C149.561 6.93622 149.531 7.17856 149.378 7.4209L145.526 13.5097V16.3875C145.526 16.6601 145.434 16.9025 145.22 17.1145C145.006 17.3266 144.762 17.4175 144.456 17.4175Z" fill="#333333"/>
</g>
</g>
<defs>
<linearGradient id="paint0_linear_539_594" x1="28.3117" y1="13.7854" x2="9.53795" y2="13.7854" gradientUnits="userSpaceOnUse">
<stop stop-color="#B3FFC5"/>
<stop offset="1" stop-color="#97DDFA"/>
</linearGradient>
<linearGradient id="paint1_linear_539_594" x1="19.0908" y1="14.9078" x2="10.0358" y2="14.9078" gradientUnits="userSpaceOnUse">
<stop offset="0.00534759" stop-color="#0048B6"/>
<stop offset="0.3572" stop-color="#377ECF"/>
<stop offset="1" stop-color="#97DDFA"/>
</linearGradient>
<linearGradient id="paint2_linear_539_594" x1="23.1431" y1="8.89767" x2="4.36934" y2="8.89767" gradientUnits="userSpaceOnUse">
<stop stop-color="#A9FFCE"/>
<stop offset="1" stop-color="#97DDFA"/>
</linearGradient>
<linearGradient id="paint3_linear_539_594" x1="4.20048" y1="-0.673965" x2="13.4342" y2="8.64438" gradientUnits="userSpaceOnUse">
<stop stop-color="#2C95FF"/>
<stop offset="0.0952693" stop-color="#369CFF"/>
<stop offset="1" stop-color="#97DDFA"/>
</linearGradient>
<linearGradient id="paint4_linear_539_594" x1="14.1293" y1="9.98486" x2="4.8551" y2="9.98486" gradientUnits="userSpaceOnUse">
<stop offset="0.00534759" stop-color="#0048B6"/>
<stop offset="0.3572" stop-color="#377ECF"/>
<stop offset="1" stop-color="#97DDFA"/>
</linearGradient>
<clipPath id="clip0_539_594">
<rect width="149" height="22" fill="white" transform="translate(0.5 0.5)"/>
</clipPath>
</defs>
</svg>
